# xmcd
# Copyright (C) 1995-1998 Ti Kan
#
# Track frame offsets:
#       150
#       16775
#       31097
#       55332
#       76747
#       98382
#       112346
#       128201
#       143613
#       169438
#       190622
#       212912
#       228417
#       250966
#       266508
#       294228
#       308762
#
# Disc length: 4354 seconds
#
# Revision: 0
# Processed by: cddbd v1.5.2PL0 Copyright (c) Steve Scherf et al.
# Submitted via: CD-Transfer v1.0
#
DISCID=e0110011
DTITLE=Apocaliptica - 
DYEAR=1900
DGENRE=
TTITLE0=Enter Sandman
TTITLE1=From Out Of Nowhere
TTITLE2=Unforgiven, The
TTITLE3=Nothing Else Matters
TTITLE4=Sad But True
TTITLE5=Path
TTITLE6=Dominator
TTITLE7=Hope
TTITLE8=One
TTITLE9=In Memoriam
TTITLE10=Inquisition Simphony
TTITLE11=Hall Of The Mountain King
TTITLE12=Fade To Black
TTITLE13=Romance
TTITLE14=Wherever I May Roam
TTITLE15=Until It Sleeps
TTITLE16=Beyond Time
EXTD=
EXTT0=
EXTT1=
EXTT2=
EXTT3=
EXTT4=
EXTT5=
EXTT6=
EXTT7=
EXTT8=
EXTT9=
EXTT10=
EXTT11=
EXTT12=
EXTT13=
EXTT14=
EXTT15=
EXTT16=
PLAYORDER=
